<svg xmlns="http://www.w3.org/2000/svg" xmlns:svgjs="http://svgjs.com/svgjs" xmlns:xlink="http://www.w3.org/1999/xlink" width="288" height="288"><svg xmlns="http://www.w3.org/2000/svg" width="288" height="288" version="1.0" viewBox="0 0 400 400"><g fill="#fff" class="color000 svgShape" transform="matrix(.1 0 0 -.1 0 400)"><path d="M1753 3805 c-405 -62 -754 -236 -1033 -515 -483 -481 -656 -1208-443 -1863 46 -140 159 -365 239 -477 227 -314 522 -540 869 -665 81 -29 130
-43 273 -76 140 -32 529 -34 665 -4 213 47 340 90 490 165 619 312 1002 935
1002 1630 0 534 -234 1045 -635 1384 -240 204 -511 336 -824 402 -153 32 -455
42 -603 19z m437 -16 c87 -12 129 -18 154 -24 347 -71 642 -227 900 -475 264
-254 441 -578 517 -950 21 -101 24 -142 24 -340 0 -253 -15 -356 -80 -558 -46
-139 -157 -362 -242 -482 -88 -124 -311 -347 -431 -430 -247 -173 -512 -276
-808 -315 -683 -89 -1365 235 -1741 830 -118 187 -196 385 -245 620 -19 96
-22 140 -22 335 0 239 6 291 59 482 150 542 552 987 1078 1193 161 63 276 91
460 114 87 11 299 11 377 0z" class="color000 svgShape"/><path d="M1613 3480c46-204 91-387 96-393 13-13 71 4 71 22 0 9-14 72-30 141-53 221-49 210-81 210-17 0-34 8-45 23l-16 22 5-25zM2228 3493c-33-4-38-8-38-30 0-14-40-92-90-176-62-104-86-153-78-158 17-11 23-5 58 56 35 60 33 60 112 44l55-11 11-61c6-33 15-64 19-68 9-8 83-19 83-12 0 2-11 52-24 111-14 59-27 120-30 135-8 43-38 177-40 175 0-1-18-3-38-5zm-5-171c13-58 13-62-3-62-32 0-80 12-80 21 0 9 62 110 66 107 1-2 9-31 17-66zM2476 3254c-43-104-80-194-82-199-4-10 64-41 71-33 4 5 110 258 125 299 11 32 11 38-6 57-11 13-21 32-24 44-4 14-29-37-84-168zM2723 3263c-37-54-93-133-125-177l-57-78 27-34c15-19 29-29 30-24 6 18 22 11 22-10 0-29 56-60 107-60 33 0 50 7 77 31 82 72 60 192-41 223-22 7-22 8 13 61 35 53 35 54 18 80-14 22-16 32-7 56 6 16 10 29 8 29-2 0-34-44-72-97zm65-164c17-26 8-67-24-110-43-59-113-79-134-39-12 23-13 20 48 108 35 50 49 62 70 62 17 0 32-8 40-21zM1411 3235c-62-53-61-148 3-202 26-22 37-25 85-21 45 4 59 10 83 37 15 17 28 37 28 43 0 7-7 2-16-10-35-51-90-46-128 13l-17 26 70 31c39 18 71 35 71 39 0 4-12 21-26 38-22 27-32 31-74 31-37 0-55-6-79-25zm114-25l15-29-39-21c-22-11-45-20-51-20-14 0-13 73 2 88 22 22 57 14 73-18zM1144 3081c-63-38-93-103-60-130 23-19 49-2 41 28-12 48-10 63 8 75 19 12 43 2 61-27 9-14 3-32-27-86-31-58-36-73-27-95 11-31 45-41 85-26 36 14 75 48 75 66 0 8 6 11 15 8 18-7 60 18 74 45 9 16 8 18-7 15-12-3-32 15-67 57-27 34-55 68-63 75-19 20-72 17-108-5zm146-183c0-22-45-52-64-45-8 3-22 17-32 32-13 20-14 31-6 53 6 15 13 36 17 47 6 18 11 15 46-25 21-25 39-53 39-62zM807 2994c-29-29-43-80-33-120 4-14 24-41 44-60 33-31 36-36 24-55-18-28-7-37 18-14 19 18 22 16 115-55l95-72 20 24c11 12 19 28 20 34 0 11-110 105-157 135-29 17-29 21 2 57 17 20 22 33 14 37-9 6-21-5-51-49-13-20-118 73-118 106 0 22 27 35 45 22 49-36 64-44 79-38 19 7 21 45 4 62-7 7-31 12-54 12-31 0-48-6-67-26zM2914 2901c-11-5-33-23-47-41-48-56-30-152 34-185 17-9 36-14 42-11 7 2 4 5-5 5-21 1-48 39-48 67 0 13 12 36 26 53l26 31 50-61c48-57 51-59 69-43 33 29 43 78 24 118-9 19-25 42-36 52-21 19-103 28-135 15zm134-57c29-20 28-45-2-73l-24-22-31 38c-17 21-31 41-31 44 0 6 42 25 60 28 3 1 16-6 28-15zM2336 2793c-3-4-63-6-131-5-153 3-240-14-335-64-173-91-262-270-247-499 12-179 63-279 162-321 113-47 270 15 398 156 36 40 77 104 117 183 75 146 131 228 197 287 55 49 132 88 183 92 30 3 35 0 38-21 3-15-6-34-26-55-40-43-44-61-25-102 12-23 14-39 8-48-49-66-48-65-31-91 23-35 20-51-18-85-30-27-34-38-38-92-6-86-44-112-120-83-14 6-16 0-11-54 7-77-11-111-60-111-17 0-41 7-51 15-31 23-43 18-49-22-7-38-51-93-76-93-8 0-32 12-53 26-39 27-41 27-98-7-74-45-234-34-344 24-44 24-67 44-91 82-42 66-89 189-116 300-25 104-48 155-83 183-30 23-109 47-131 38-14-5-13-10 6-36 33-43 29-117-16-295-45-176-51-285-21-374 29-85 128-179 248-236 53-25 100-45 107-45 15 0 14-129-3-260-14-105-14-122 3-104 13 14 21 74 28 222l6 132 41 0c37 0 45-5 84-50 33-38 55-53 96-66 29-9 64-14 78-11 40 10 76 45 83 80 10 46 14 49 38 32 50-35 95-11 111 58l7 28 26-21c63-50 118-8 122 93 1 17 3 17 30-2 36-26 83-27 103-3 9 9 22 37 29 62 7 25 13 46 15 48 1 2 17-6 37-18 66-39 137-25 137 27 0 50-29 83-98 116-56 26-79 31-137 31-38-1-90-8-115-17-24-9-45-15-47-13-1 1 3 17 10 35 9 26 16 31 32 26 40-13 90-5 114 19 18 19 23 35 24 75l1 51 34 0c24 0 42 8 63 29 24 25 29 37 29 81 0 45 4 55 34 83 43 41 49 61 30 99-15 28-14 31 5 52 24 25 26 55 9 102-10 29-9 35 20 70 25 30 32 48 32 83l0 44-54-6c-149-15-270-129-398-374-76-146-74-143-155-226-99-100-215-150-308-133-74 14-151 116-169 222-12 69-14 186-4 244 11 71 24 103 65 167 57 91 113 138 211 178 80 32 118 38 272 39 74 1 141 5 148 9 8 6 12 2 12-12 0-28-45-78-77-86-48-12-55-23-48-80 7-56 14-47-77-121-24-19-23-49 3-72l20-20-27-21c-15-11-35-21-45-21-11 0-19-7-19-15 0-24 29-75 43-75 25-1-49-50-75-50-15 0-29-4-33-9-7-12 21-40 52-52 13-5 22-13 19-18-11-18-100-41-158-41-69 0-78-16-12-22 56-4 126 13 194 47 71 36 85 74 21 55-18-5-42-5-53-1-19 7-16 10 25 35 59 34 86 76 49 76-21 0-42 18-42 37 0 7 6 13 14 13 15 0 86 76 86 92 0 4-11 8-25 8-32 0-34 34-2 51 52 28 82 84 67 125-15 38-14 39 39 63 55 24 76 50 86 105 7 33 5 36-17 36-14 0-28-3-32-7zm-938-412c50-26 66-57 106-207 80-302 150-383 360-420 93-16 158-9 225 26l40 20 35-23c19-12 35-25 36-29 0-3-15-15-32-26-18-10-79-59-134-108-106-92-193-145-246-148-28-1-33 5-83 99-30 55-60 100-67 100-7 0-12-7-10-15 2-8 6-54 9-103l6-88-29 11c-147 56-265 149-311 245-38 80-31 221 20 396 32 110 42 217 24 267-10 28 1 28 51 3zm1202-604c25-13 53-37 64-56 17-29 17-34 3-48-21-21-77-10-116 22-36 31-51 32-51 3 0-36-19-96-36-113-24-23-41-18-88 25-24 22-46 40-50 40-3 0-6-31-6-68 0-120-39-133-111-36-41 56-67 71-54 32 24-75 11-158-25-158-10 0-34 18-53 40-19 22-37 40-40 40-4 0-7-23-7-50 0-94-36-129-120-117-42 5-72 25-108 69-22 26-22 28-5 34 46 17 160 72 173 85 69 64 183 161 220 186 161 109 291 131 410 70zm-870-320c0-5-15-7-32-5l-33 3-2 70-3 70 35-65c19-36 34-69 35-73z" class="color000 svgShape"/><path d="M1390 2241c0-20 25-47 33-34 7 12-11 53-23 53-5 0-10-8-10-19zM3075 2615c-49-24-94-45-99-47-5-2 0-20 10-40l19-36 115 54c63 29 119 55 125 57 14 5-46 57-65 56-8-1-55-20-105-44zM762 2587c-64-68-68-187-5-175 27 5 30 48 4 55-43 11-37 73 8 73 49 0 55-12 56-101 0-80 1-84 28-99 24-13 30-13 53 0 25 14 69 79 60 88-3 2-14-6-25-17-40-40-84-15-99 56-6 26-9 49-8 51 7 6 102-40 114-55 7-10 12-12 12-5 0 7 6 12 14 12 20 0 46 39 46 68 0 19-3 22-13 14-9-7-35-1-92 23-95 40-124 43-153 12zM3228 2569c21-22 15-59-13-69-28-11-32-31-10-50 12-10 20-9 40 4 39 26 31 104-12 120-14 6-16 5-5-5zM3314 2367c5-23 2-25-67-37-130-23-167-52-153-125 6-29 42-75 59-75 5 0-1 8-13 18-18 14-21 25-17 44 8 30 18 35 117 54 98 18 97 19 104-16 8-42 24-37 22 7l-1 37 53 9 53 9-25 25c-15 14-26 30-26 36 0 6-16 7-40 4-33-4-40-2-45 14-9 28-28 24-21-4zM546 2269c-24-21-29-37-42-119-7-52-14-100-14-106 0-7 25-15 58-19 80-9 122-15 157-20 17-2 62-7 101-11l72-6 4 40 3 41-77 7c-72 6-78 8-78 29 0 47 36 72 106 74 43 1 64 20 71 66 5 34 4 38-8 29-8-6-41-16-73-23-33-6-68-18-78-28-15-13-18-14-18-1 0 31-48 61-103 66-45 4-57 1-81-19zm117-48c42-16 57-39 57-88l0-46-62 7c-35 4-82 9-106 13l-43 5 6 42c4 22 16 49 27 59 22 19 82 23 121 8zM3120 2041c0-48 1-49 157-43l123 4-20 26c-11 13-20 31-20 38 0 11-25 14-120 14l-120 0 0-39zM3437 2073c-13-12-7-52 9-61 21-12 51-5 58 13 10 28-6 55-33 55-15 0-31-3-34-7zM3130 1650c0-8 60-30 83-30 17 0 5 28-15 34-34 9-68 7-68-4zM856 1621c-28-9-52-23-54-29-5-16 3-15 67 7 30 10 57 23 59 29 5 16-13 14-72-7zM3120 1610c0-5 5-10 11-10 5 0 7 5 4 10-3 6-8 10-11 10-2 0-4-4-4-10zM3160 1584c0-15 26-19 34-5 3 5-3 11-14 14-13 3-20 0-20-9zM3060 1580c0-5 5-10 10-10 6 0 10 5 10 10 0 6-4 10-10 10-5 0-10-4-10-10zM853 1562c-50-24-43-44 7-25 38 15 49 27 33 36-5 3-23-2-40-11zM3100 1564c0-7 16-21 36-29 44-18 44-18 44-2 0 8-18 21-40 30-34 13-40 13-40 1zM873 1511c-27-13-46-41-28-41 21 0 75 32 75 44 0 19-5 18-47-3zM3088 1523c6-2 18-2 25 0 6 3 1 5-13 5-14 0-19-2-12-5zM3064 1484c3-21 66-48 80-34 6 6-3 15-30 26-21 9-42 18-46 20-3 2-5-3-4-12zM917 1473c-4-3-7-17-7-29 0-12-7-30-16-38-14-15-14-16 5-16 17 0 21 6 21 30 0 18 6 33 15 36 8 4 12 10 9 15-6 11-18 12-27 2zM870 1439c0-5 5-7 10-4 6 3 10 8 10 11 0 2-4 4-10 4-5 0-10-5-10-11zM945 1430c-3-5-1-10 4-10 6 0 11 5 11 10 0 6-2 10-4 10-3 0-8-4-11-10zM3037 1433c-4-3 12-15 35-25 50-23 77-8 30 16-33 17-55 20-65 9zM963 1384c-28-16-43-32-43-45 0-19 2-18 35 6 19 15 39 24 46 19 7-4 9-3 6 3-4 6 0 14 9 17 8 3 12 10 9 16-9 14-15 13-62-16zM3020 1390c0-5 5-10 10-10 6 0 10 5 10 10 0 6-4 10-10 10-5 0-10-4-10-10zM2950 1380c-9-6-1-15 27-33 22-14 47-32 55-41 13-13 18-13 27-2 9 10-1 21-42 49-34 22-59 32-67 27zM3060 1368c0-8 3-17 6-21 9-8 34 3 34 16 0 6-3 7-7 4-3-4-12-2-20 4-10 9-13 8-13-3zM1050 1344c0-8 5-12 10-9 6 3 10 10 10 16 0 5-4 9-10 9-5 0-10-7-10-16zM982 1308c-22-14-30-24-23-31 12-12 84 30 75 44-8 13-15 11-52-13zM2967 1323c-4-3-7-17-7-29 0-28 32-48 61-39 18 6 17 8-13 23-20 11-32 24-32 35 2 19 1 20-9 10zM1035 1279c-35-31-45-62-23-75 7-4 8-3 4 4-7 11 33 54 51 55 12 0 32 30 27 39-9 14-23 8-59-23zM2917 1253c-4-3 9-17 29-31 46-31 70-15 26 17-32 22-44 25-55 14zM1067 1202c-25-26-26-30-11-48 8-10 13-14 10-8-3 6 8 24 24 39 16 15 27 32 24 37-9 14-19 9-47-20zM2887 1216c-8-20 52-71 66-57 6 6 9 12 6 13-2 2-18 16-35 31-25 23-32 25-37 13zM2847 1177c-8-21 47-71 69-63 9 4 15 7 13 9-2 1-20 17-40 35-28 26-38 30-42 19zM1106 1156c-18-15-27-30-23-40 5-12 13-8 42 19 19 19 35 37 35 40 0 12-27 2-54-19zM1195 1159c-4-5-11-7-16-4-5 3-6 0-4-8 3-7-3-22-15-32-23-20-26-50-7-61 6-4 9-3 4 1-10 11 43 66 56 58 6-3 7-1 3 6-4 6-3 18 3 25 9 10 8 15-3 19-9 4-18 2-21-4zM2805 1130c-8-13 32-60 51-60 25 0 21 15-12 43-21 18-35 24-39 17zM2785 1090c3-5 8-10 11-10 2 0 4 5 4 10 0 6-5 10-11 10-5 0-7-4-4-10zM2748 1084c-5-4-8-18-8-31 0-30 39-50 66-34 18 10 18 10-2 11-24 0-40 16-45 43-2 11-7 15-11 11zM1210 1059c-22-40-6-51 23-14 26 32 26 35 8 35-11 0-25-9-31-21zM1281 1054c0-6-12-23-26-38-21-23-22-26-6-26 26 0 43 24 38 52-2 13-5 18-6 12zM2671 1026c-30-37 16-91 56-67 16 9 16 10-4 11-21 0-43 26-43 49 0 14 37 14 43 1 3-6 4-5 3 2-4 19-41 21-55 4zM2595 1010c3-5 8-10 11-10 2 0 4 5 4 10 0 6-5 10-11 10-5 0-7-4-4-10zM1422 952c-21-35-29-59-23-65 6-6 20 10 40 44 33 57 35 65 24 72-5 3-23-20-41-51zM2535 991c-9-31 1-39 55-43 38-3 45-7 51-28 5-21 7-22 13-8 16 37 3 53-48 58-37 4-51 10-56 25-7 19-7 19-15-4zM1350 965c-13-16-6-65 10-65 5 0 7 7 4 15-4 8 1 26 10 40 13 20 14 25 2 25-7 0-19-7-26-15zM1456 908c-11-15-12-26-5-39 15-28 27-31 22-5-3 16 2 31 16 45 20 20 20 21 2 21-11 0-27-10-35-22zM1616 873c-18-52-20-83-7-83 4 0 16 26 26 58 10 31 20 60 22 65 2 4-2 7-10 7-9 0-22-20-31-47zM2570 905c0-8 2-15 4-15 2 0 12-3 21-6 15-6 15-4 4 15-16 25-29 27-29 6zM1521 894c0-11 3-14 6-6 3 7 2 16-1 19-3 4-6-2-5-13zM2325 899c-4-6-5-12-2-15 2-3 7 2 10 11 7 17 1 20-8 4zM2445 900c-4-6-2-10 2-10 5 0 15-16 22-36 9-25 16-33 23-26 8 8 7 20-1 41-14 31-36 47-46 31zM2405 891c-8-14 13-91 26-91 16 0 16 16-1 59-11 29-19 40-25 32zM2240 880c0-5 5-10 10-10 6 0 10 5 10 10 0 6-4 10-10 10-5 0-10-4-10-10zM1806 838c-4-24-9-53-13-65-3-16-1-23 10-23 10 0 17 16 23 53 11 70 11 70-2 74-7 2-14-14-18-39zM2355 846c10-15 15-35 12-48-6-20-5-20 10-5 21 21 7 70-21 75-17 4-17 2-1-22zM2307 853c-12-12-7-50 8-63 23-19 26-9 11 33-7 20-16 34-19 30zM1665 840c3-5 8-10 11-10 2 0 4 5 4 10 0 6-5 10-11 10-5 0-7-4-4-10zM2255 839c-7-20 9-72 24-77 9-3 11 6 5 34-7 45-21 64-29 43zM1742 828c-11-11-18-68-8-68 2 0 13-3 23-7 16-6 16-5 5 10-15 17-8 56 12 69 7 5 6 8-4 8-9 0-21-5-28-12zM1863 823c-8-2-13-22-13-44 0-56 24-51 28 6 1 25 1 45 0 44-2 0-9-3-15-6zM2170 810c-13-24 3-60 26-60 12 0 13 4 3 21-6 12-9 30-6 40 7 25-9 24-23-1zM2226 815c4-8 8-15 10-15 2 0 4 7 4 15 0 8-4 15-10 15-5 0-7-7-4-15zM1917 813c-4-3-7-24-7-45 0-27 4-38 15-38 11 0 15 12 15 45 0 42-7 54-23 38zM1975 796c-19-29-6-66 22-66 13 0 14 3 5 12-18 18-15 55 6 67 16 10 16 10 0 11-10 0-25-11-33-24zM2065 810c-3-5-1-10 4-10 6 0 11 5 11 10 0 6-2 10-4 10-3 0-8-4-11-10zM2116 783c10-58 24-63 24-10 0 36-4 47-15 47-13 0-15-7-9-37zM2031 794c0-11 3-14 6-6 3 7 2 16-1 19-3 4-6-2-5-13zM2073 773c-18-7-16-30 3-37 9-4 19-4 22-1 3 3 0 5-7 5-8 0-11 8-8 20 3 11 4 20 4 19-1 0-8-3-14-6zM1450 683c-44-16-55-87-18-119 19-16 21-16 9-1-18 23 0 90 32 112 21 15 9 20-23 8zM1516 652c-4-13-5-26-2-29 10-11 18 4 14 29l-4 23-8-23zM2433 659c-18-5-33-16-33-23 0-11 8-11 37 4 28 13 40 15 46 7 6-8 7-8 5 2-5 19-16 21-55 10zM1590 629c0-5 5-7 10-4 6 3 10 8 10 11 0 2-4 4-10 4-5 0-10-5-10-11zM2336 631c-16-3-31-11-33-17-2-7 10-7 42 0 25 6 45 14 45 18 0 9-11 9-54-1zM2455 586c-17-45-14-69 8-60 10 4 22 104 12 104-2 0-11-20-20-44zM1705 573c-4-27-11-55-16-65-6-11-4-18 6-22 10-4 17 3 21 22 3 15 10 42 15 61 4 19 6 38 3 43-12 19-22 5-29-39zM1540 600c0-5 4-10 9-10 6 0 13 5 16 10 3 6-1 10-9 10-9 0-16-4-16-10zM1760 601c0-6 5-13 10-16 6-3 10 1 10 9 0 9-4 16-10 16-5 0-10-4-10-9zM2195 594c-23-23-4-73 28-74 5 0 1 7-7 16-19 18-21 45-4 62 7 7 9 12 6 12-4 0-14-7-23-16zM2250 595c6-8 13-37 13-65 2-44 4-48 15-33 23 30 0 113-30 113-6 0-5-6 2-15zM1587 583c-16-59-17-73-3-73 12 0 26 40 26 76 0 20-18 17-23-3zM2357 571c-19-33-23-85-6-79 7 2 13 17 14 34 1 16 6 40 9 52 10 30 4 28-17-7zM2137 583c-3-5-3-35 0-67 7-70 29-71 24 0-3 52-14 83-24 67zM1642 568c-23-23-8-78 22-78 6 0 5 5-2 12-17 17-15 44 4 62 12 13 12 16 2 16-8 0-19-5-26-12zM1527 563c-12-11-8-31 7-36 10-4 13-1 9 10-3 8 0 19 8 24 12 7 11 9-2 9-9 0-19-3-22-7zM1763 562c-7-4-15-28-19-52-6-40-5-43 9-30 8 8 18 32 21 53 7 40 7 41-11 29zM1800 550c0-5 7-7 15-4 8 4 15 8 15 10 0 2-7 4-15 4-8 0-15-4-15-10zM1826 513c-24-28-27-36-15-44 18-11 69-12 69 0 0 4-12 6-27 3l-27-5 33 41c27 35 30 42 14 41-10 0-31-16-47-36zM1988 503c12-2 30-2 40 0 9 3-1 5-23 4-22 0-30-2-17-4zM2200 495c0-8 5-15 10-15 6 0 10 7 10 15 0 8-4 15-10 15-5 0-10-7-10-15z" class="color000 svgShape"/></g></svg></svg>